<?xml version="1.0" standalone="no"?><svg xmlns="http://www.w3.org/2000/svg" viewBox="0 0 1440 320"><path fill="#5000ca" fill-opacity="1" d="M0,192L6.2,181.3C12.3,171,25,149,37,133.3C49.2,117,62,107,74,106.7C86.2,107,98,117,111,112C123.1,107,135,85,148,69.3C160,53,172,43,185,80C196.9,117,209,203,222,240C233.8,277,246,267,258,224C270.8,181,283,107,295,101.3C307.7,96,320,160,332,176C344.6,192,357,160,369,165.3C381.5,171,394,213,406,234.7C418.5,256,431,256,443,261.3C455.4,267,468,277,480,245.3C492.3,213,505,139,517,122.7C529.2,107,542,149,554,165.3C566.2,181,578,171,591,192C603.1,213,615,267,628,250.7C640,235,652,149,665,101.3C676.9,53,689,43,702,85.3C713.8,128,726,224,738,261.3C750.8,299,763,277,775,256C787.7,235,800,213,812,213.3C824.6,213,837,235,849,213.3C861.5,192,874,128,886,133.3C898.5,139,911,213,923,229.3C935.4,245,948,203,960,192C972.3,181,985,203,997,181.3C1009.2,160,1022,96,1034,106.7C1046.2,117,1058,203,1071,234.7C1083.1,267,1095,245,1108,229.3C1120,213,1132,203,1145,213.3C1156.9,224,1169,256,1182,234.7C1193.8,213,1206,139,1218,117.3C1230.8,96,1243,128,1255,154.7C1267.7,181,1280,203,1292,229.3C1304.6,256,1317,288,1329,266.7C1341.5,245,1354,171,1366,144C1378.5,117,1391,139,1403,165.3C1415.4,192,1428,224,1434,240L1440,256L1440,320L1433.8,320C1427.7,320,1415,320,1403,320C1390.8,320,1378,320,1366,320C1353.8,320,1342,320,1329,320C1316.9,320,1305,320,1292,320C1280,320,1268,320,1255,320C1243.1,320,1231,320,1218,320C1206.2,320,1194,320,1182,320C1169.2,320,1157,320,1145,320C1132.3,320,1120,320,1108,320C1095.4,320,1083,320,1071,320C1058.5,320,1046,320,1034,320C1021.5,320,1009,320,997,320C984.6,320,972,320,960,320C947.7,320,935,320,923,320C910.8,320,898,320,886,320C873.8,320,862,320,849,320C836.9,320,825,320,812,320C800,320,788,320,775,320C763.1,320,751,320,738,320C726.2,320,714,320,702,320C689.2,320,677,320,665,320C652.3,320,640,320,628,320C615.4,320,603,320,591,320C578.5,320,566,320,554,320C541.5,320,529,320,517,320C504.6,320,492,320,480,320C467.7,320,455,320,443,320C430.8,320,418,320,406,320C393.8,320,382,320,369,320C356.9,320,345,320,332,320C320,320,308,320,295,320C283.1,320,271,320,258,320C246.2,320,234,320,222,320C209.2,320,197,320,185,320C172.3,320,160,320,148,320C135.4,320,123,320,111,320C98.5,320,86,320,74,320C61.5,320,49,320,37,320C24.6,320,12,320,6,320L0,320Z"></path></svg>